<?xml version="1.0" encoding="UTF-8" standalone="no"?>
<svg
   xmlns:dc="http://purl.org/dc/elements/1.1/"
   xmlns:cc="http://creativecommons.org/ns#"
   xmlns:rdf="http://www.w3.org/1999/02/22-rdf-syntax-ns#"
   xmlns:svg="http://www.w3.org/2000/svg"
   xmlns="http://www.w3.org/2000/svg"
   xmlns:sodipodi="http://sodipodi.sourceforge.net/DTD/sodipodi-0.dtd"
   xmlns:inkscape="http://www.inkscape.org/namespaces/inkscape"
   sodipodi:docname="logo.svg"
   inkscape:version="1.0 (4035a4f, 2020-05-01)"
   id="svg8"
   version="1.1"
   viewBox="0 0 210 297"
   height="297mm"
   width="210mm">
  <defs
     id="defs2">
    <clipPath
       id="clipPath1057"
       clipPathUnits="userSpaceOnUse">
      <path
         id="path1059"
         d="M 4657.572,4673.2501 4908.3864,3149.7847 2939.0286,2192.9741 1610.6411,130.72218 941.80262,28.538565 152.20163,177.16938 50.017972,1449.8202 68.596804,4766.1445 997.53913,5184.1686 1787.1401,4236.6473 3292.0266,4701.1185 Z"
         style="fill:none;stroke:#000000;stroke-width:9.99999px;stroke-linecap:butt;stroke-linejoin:miter;stroke-opacity:1" />
    </clipPath>
  </defs>
  <sodipodi:namedview
     inkscape:window-maximized="0"
     inkscape:window-y="22"
     inkscape:window-x="25"
     inkscape:window-height="856"
     inkscape:window-width="1252"
     showgrid="false"
     inkscape:document-rotation="0"
     inkscape:current-layer="layer1"
     inkscape:document-units="mm"
     inkscape:cy="555.478"
     inkscape:cx="284.96504"
     inkscape:zoom="0.80613126"
     inkscape:pageshadow="2"
     inkscape:pageopacity="0.0"
     borderopacity="1.0"
     bordercolor="#666666"
     pagecolor="#ffffff"
     id="base" />
  <metadata
     id="metadata5">
    <rdf:RDF>
      <cc:Work
         rdf:about="">
        <dc:format>image/svg+xml</dc:format>
        <dc:type
           rdf:resource="http://purl.org/dc/dcmitype/StillImage" />
        <dc:title></dc:title>
      </cc:Work>
    </rdf:RDF>
  </metadata>
  <g
     id="layer1"
     inkscape:groupmode="layer"
     inkscape:label="Layer 1">
    <g
       clip-path="url(#clipPath1057)"
       transform="matrix(0.02645833,0,0,0.02645833,13.254172,72.979707)"
       id="g171">
      <g
         id="layer101"
         fill="#1f649f"
         stroke="none">
        <path
           d="M 0,2765 V 0 h 6000 6000 V 2765 5530 H 6000 0 Z"
           id="path127" />
      </g>
      <g
         id="layer102"
         fill="#5388b5"
         stroke="none">
        <path
           d="M 0,2765 V 0 h 6000 6000 V 2765 5530 H 6000 0 Z m 5181,-31 c 38,-17 75,-44 100,-72 l 39,-45 v 72 71 h 50 50 v -535 -535 h -50 -50 v 227 227 l -34,-40 c -75,-87 -207,-126 -337,-99 -125,26 -208,91 -263,205 -28,60 -31,73 -31,170 0,97 3,110 31,170 89,188 306,269 495,184 z m 1270,11 c 108,-38 159,-101 159,-197 0,-120 -70,-170 -297,-212 -149,-28 -200,-65 -190,-141 15,-109 184,-146 355,-78 35,14 65,23 66,21 20,-26 36,-55 36,-65 0,-18 -65,-49 -135,-63 -74,-16 -197,-17 -251,-2 -105,30 -174,111 -174,205 0,111 57,164 208,197 187,41 222,52 252,80 66,62 20,156 -88,179 -29,6 -70,11 -90,11 -56,0 -161,-28 -211,-55 -24,-14 -47,-25 -51,-25 -7,0 -50,65 -50,75 0,12 126,66 186,79 81,18 209,14 275,-9 z m 1703,-1 c 65,-23 142,-81 181,-138 87,-127 87,-325 0,-451 -81,-119 -230,-179 -385,-154 -88,13 -162,53 -220,116 -70,76 -94,144 -94,263 0,119 24,187 94,263 102,111 275,153 424,101 z m 881,5 c 53,-16 78,-31 116,-69 l 49,-49 v 64 65 h 50 50 v -380 -380 h -49 -49 l -5,238 c -5,265 -9,289 -69,357 -48,54 -101,76 -190,76 -116,1 -190,-51 -218,-150 -5,-20 -10,-145 -10,-278 v -243 h -51 -50 l 3,283 3,282 30,54 c 70,128 228,180 390,130 z m 1483,-4 c 104,-32 171,-128 156,-225 -16,-97 -76,-137 -264,-177 -69,-14 -142,-34 -163,-45 -85,-42 -81,-140 6,-189 72,-40 256,-26 329,25 21,15 23,14 45,-25 13,-23 23,-42 23,-44 0,-13 -132,-56 -196,-64 -233,-29 -395,77 -370,244 15,95 92,147 271,180 170,32 215,60 215,133 0,34 -6,49 -27,71 -64,64 -250,64 -376,1 -33,-16 -63,-30 -66,-30 -4,0 -15,16 -26,36 l -19,36 22,19 c 86,69 301,96 440,54 z m 766,10 c 73,-15 136,-47 174,-88 l 23,-24 -26,-32 -27,-31 -32,25 c -103,79 -235,93 -349,37 -85,-42 -131,-102 -152,-199 l -7,-33 h 323 322 l -7,-72 c -16,-177 -124,-301 -290,-334 -68,-14 -84,-14 -151,-1 -168,35 -279,164 -292,341 -18,240 145,416 392,425 17,0 61,-6 99,-14 z M 5810,2380 v -380 h -50 -50 v 380 380 h 50 50 z m 1156,161 c 88,-121 161,-220 164,-220 3,-1 77,98 165,219 l 160,219 64,1 c 49,0 61,-3 54,-12 -5,-7 -92,-124 -192,-261 -182,-247 -183,-248 -166,-273 9,-14 85,-118 168,-232 84,-114 156,-213 161,-219 5,-10 -7,-13 -51,-13 l -58,1 -145,200 c -80,110 -148,202 -151,204 -3,2 -73,-88 -155,-200 l -149,-204 -63,-1 h -63 l 54,73 c 179,243 297,408 297,417 0,11 -6,20 -210,295 -70,94 -135,182 -144,198 l -18,27 h 60 59 z m 2724,-4 c 0,-251 9,-302 62,-363 41,-46 93,-72 162,-80 l 56,-7 v -49 -49 l -37,6 c -82,14 -99,18 -134,36 -20,10 -55,39 -78,65 l -41,47 v -72 -71 h -45 -45 v 380 380 h 50 50 z M 5812,1813 c 43,-39 9,-123 -51,-123 -64,0 -98,73 -56,120 22,25 81,27 107,3 z"
           id="path130" />
      </g>
      <g
         id="layer103"
         fill="#fefefe"
         stroke="none">
        <path
           d="M 0,2765 V 0 h 6000 6000 V 2765 5530 H 6000 0 Z m 890,2151 c 279,-61 480,-311 480,-599 0,-98 -28,-210 -74,-292 l -33,-60 121,-130 c 66,-71 155,-168 199,-214 l 79,-84 76,24 c 105,33 256,34 357,2 95,-30 183,-84 259,-160 36,-35 69,-63 74,-63 9,0 176,62 627,230 l 130,49 2,108 c 6,343 215,622 543,725 64,19 96,23 215,23 119,0 151,-4 215,-23 260,-81 454,-283 521,-541 23,-87 28,-264 10,-346 -62,-273 -267,-491 -541,-576 -62,-20 -97,-24 -205,-24 -108,0 -143,4 -205,24 -160,49 -298,143 -400,272 l -37,47 -294,-109 c -162,-61 -336,-126 -386,-145 l -93,-36 v -51 c -1,-264 -198,-515 -457,-582 -33,-9 -102,-15 -164,-15 h -106 l -36,-78 c -19,-42 -51,-111 -70,-152 -20,-41 -70,-149 -112,-240 -42,-91 -106,-230 -143,-309 l -66,-144 37,-30 c 93,-74 196,-241 233,-377 27,-99 25,-291 -4,-393 C 1581,434 1441,265 1245,169 1112,105 1021,86 870,92 682,101 525,166 391,294 231,447 150,632 150,845 c 1,372 253,676 623,751 79,16 245,15 288,-1 12,-4 22,8 42,52 14,32 76,166 137,298 62,132 134,288 161,346 26,59 62,135 78,169 l 31,63 -51,55 c -97,106 -149,246 -149,402 0,103 19,182 64,273 l 34,68 -199,214 c -110,118 -202,215 -205,215 -2,0 -37,-9 -77,-20 -91,-26 -228,-28 -317,-5 -171,44 -323,168 -398,325 -52,108 -66,184 -59,308 10,189 97,347 251,457 141,100 318,137 486,101 z M 5181,2734 c 38,-17 75,-44 100,-72 l 39,-45 v 72 71 h 50 50 v -535 -535 h -50 -50 v 227 227 l -34,-40 c -75,-87 -207,-126 -337,-99 -125,26 -208,91 -263,205 -28,60 -31,73 -31,170 0,97 3,110 31,170 89,188 306,269 495,184 z m 1270,11 c 108,-38 159,-101 159,-197 0,-120 -70,-170 -297,-212 -149,-28 -200,-65 -190,-141 15,-109 184,-146 355,-78 35,14 65,23 66,21 20,-26 36,-55 36,-65 0,-18 -65,-49 -135,-63 -74,-16 -197,-17 -251,-2 -105,30 -174,111 -174,205 0,111 57,164 208,197 187,41 222,52 252,80 66,62 20,156 -88,179 -29,6 -70,11 -90,11 -56,0 -161,-28 -211,-55 -24,-14 -47,-25 -51,-25 -7,0 -50,65 -50,75 0,12 126,66 186,79 81,18 209,14 275,-9 z m 1703,-1 c 65,-23 142,-81 181,-138 87,-127 87,-325 0,-451 -81,-119 -230,-179 -385,-154 -88,13 -162,53 -220,116 -70,76 -94,144 -94,263 0,119 24,187 94,263 102,111 275,153 424,101 z m 881,5 c 53,-16 78,-31 116,-69 l 49,-49 v 64 65 h 50 50 v -380 -380 h -49 -49 l -5,238 c -5,265 -9,289 -69,357 -48,54 -101,76 -190,76 -116,1 -190,-51 -218,-150 -5,-20 -10,-145 -10,-278 v -243 h -51 -50 l 3,283 3,282 30,54 c 70,128 228,180 390,130 z m 1483,-4 c 104,-32 171,-128 156,-225 -16,-97 -76,-137 -264,-177 -69,-14 -142,-34 -163,-45 -85,-42 -81,-140 6,-189 72,-40 256,-26 329,25 21,15 23,14 45,-25 13,-23 23,-42 23,-44 0,-13 -132,-56 -196,-64 -233,-29 -395,77 -370,244 15,95 92,147 271,180 170,32 215,60 215,133 0,34 -6,49 -27,71 -64,64 -250,64 -376,1 -33,-16 -63,-30 -66,-30 -4,0 -15,16 -26,36 l -19,36 22,19 c 86,69 301,96 440,54 z m 766,10 c 73,-15 136,-47 174,-88 l 23,-24 -26,-32 -27,-31 -32,25 c -103,79 -235,93 -349,37 -85,-42 -131,-102 -152,-199 l -7,-33 h 323 322 l -7,-72 c -16,-177 -124,-301 -290,-334 -68,-14 -84,-14 -151,-1 -168,35 -279,164 -292,341 -18,240 145,416 392,425 17,0 61,-6 99,-14 z M 5810,2380 v -380 h -50 -50 v 380 380 h 50 50 z m 1156,161 c 88,-121 161,-220 164,-220 3,-1 77,98 165,219 l 160,219 64,1 c 49,0 61,-3 54,-12 -5,-7 -92,-124 -192,-261 -182,-247 -183,-248 -166,-273 9,-14 85,-118 168,-232 84,-114 156,-213 161,-219 5,-10 -7,-13 -51,-13 l -58,1 -145,200 c -80,110 -148,202 -151,204 -3,2 -73,-88 -155,-200 l -149,-204 -63,-1 h -63 l 54,73 c 179,243 297,408 297,417 0,11 -6,20 -210,295 -70,94 -135,182 -144,198 l -18,27 h 60 59 z m 2724,-4 c 0,-251 9,-302 62,-363 41,-46 93,-72 162,-80 l 56,-7 v -49 -49 l -37,6 c -82,14 -99,18 -134,36 -20,10 -55,39 -78,65 l -41,47 v -72 -71 h -45 -45 v 380 380 h 50 50 z M 5812,1813 c 43,-39 9,-123 -51,-123 -64,0 -98,73 -56,120 22,25 81,27 107,3 z"
           id="path133" />
        <path
           d="m 690,4591 c -93,-30 -146,-78 -186,-165 -82,-180 54,-385 256,-386 212,0 345,224 244,410 -48,88 -126,138 -227,145 -34,3 -73,1 -87,-4 z"
           id="path135" />
        <path
           d="m 3817,4131 c -119,-39 -210,-121 -264,-237 -26,-54 -28,-69 -28,-174 0,-109 2,-118 32,-181 61,-123 183,-215 320,-241 175,-32 370,70 454,240 28,58 34,80 37,158 5,113 -12,178 -71,265 -79,119 -190,179 -337,185 -64,3 -99,-1 -143,-15 z"
           id="path137" />
        <path
           d="m 1853,3251 c -133,-34 -222,-159 -211,-295 23,-284 397,-353 528,-99 69,134 4,313 -137,375 -51,22 -133,31 -180,19 z"
           id="path139" />
        <path
           d="M 815,1266 C 545,1201 405,913 523,667 568,572 634,507 730,461 c 71,-34 80,-36 181,-36 101,0 108,1 181,38 266,131 328,473 124,681 -107,110 -260,156 -401,122 z"
           id="path141" />
        <path
           d="m 4967,2670 c -55,-14 -87,-33 -129,-77 -112,-116 -109,-323 7,-436 75,-73 218,-92 319,-43 103,51 150,134 150,266 0,93 -18,148 -68,207 -56,67 -187,106 -279,83 z"
           id="path143" />
        <path
           d="m 7965,2674 c -96,-25 -163,-77 -201,-159 -34,-72 -34,-199 0,-270 49,-104 136,-157 259,-157 154,0 258,101 274,265 11,126 -46,238 -148,290 -54,27 -140,42 -184,31 z"
           id="path145" />
        <path
           d="m 10899,2332 c -7,-43 28,-126 72,-171 90,-91 251,-104 352,-27 48,36 95,116 99,167 l 3,34 -262,2 c -145,0 -263,-2 -264,-5 z"
           id="path147" />
      </g>
    </g>
  </g>
</svg>
